<?xml version="1.0" encoding="UTF-8"?>
<svg version="1.1" xmlns="http://www.w3.org/2000/svg" width="416" height="416">
<path d="M0 0 C0.90347168 0.19867676 1.80694336 0.39735352 2.73779297 0.60205078 C29.86833294 6.73571223 56.51473582 17.38188201 79 34 C80.04929687 34.76699219 81.09859375 35.53398438 82.1796875 36.32421875 C89.33664572 41.64386514 96.03036226 47.37868645 102.47314453 53.54052734 C103.50315775 54.52508427 104.53812459 55.5044814 105.57763672 56.47900391 C135.67093591 84.76066636 155.79819393 123.72987108 164 164 C164.16226074 164.74523926 164.32452148 165.49047852 164.49169922 166.25830078 C169.73354201 191.13676828 169.58289928 221.20550659 164 246 C163.70198486 247.35520752 163.70198486 247.35520752 163.39794922 248.73779297 C157.26428777 275.86833294 146.61811799 302.51473582 130 325 C129.23300781 326.04929687 128.46601563 327.09859375 127.67578125 328.1796875 C122.35613486 335.33664572 116.62131355 342.03036226 110.45947266 348.47314453 C109.47491573 349.50315775 108.4955186 350.53812459 107.52099609 351.57763672 C79.23933364 381.67093591 40.27012892 401.79819393 0 410 C-0.74523926 410.16226074 -1.49047852 410.32452148 -2.25830078 410.49169922 C-27.13676828 415.73354201 -57.20550659 415.58289928 -82 410 C-83.35520752 409.70198486 -83.35520752 409.70198486 -84.73779297 409.39794922 C-111.86833294 403.26428777 -138.51473582 392.61811799 -161 376 C-162.04929687 375.23300781 -163.09859375 374.46601563 -164.1796875 373.67578125 C-171.33664572 368.35613486 -178.03036226 362.62131355 -184.47314453 356.45947266 C-185.50315775 355.47491573 -186.53812459 354.4955186 -187.57763672 353.52099609 C-217.67093591 325.23933364 -237.79819393 286.27012892 -246 246 C-246.16226074 245.25476074 -246.32452148 244.50952148 -246.49169922 243.74169922 C-251.73354201 218.86323172 -251.58289928 188.79449341 -246 164 C-245.80132324 163.09652832 -245.60264648 162.19305664 -245.39794922 161.26220703 C-239.26428777 134.13166706 -228.61811799 107.48526418 -212 85 C-211.23300781 83.95070313 -210.46601563 82.90140625 -209.67578125 81.8203125 C-204.35613486 74.66335428 -198.62131355 67.96963774 -192.45947266 61.52685547 C-191.47491573 60.49684225 -190.4955186 59.46187541 -189.52099609 58.42236328 C-161.23933364 28.32906409 -122.27012892 8.20180607 -82 0 C-81.25476074 -0.16226074 -80.50952148 -0.32452148 -79.74169922 -0.49169922 C-54.86323172 -5.73354201 -24.79449341 -5.58289928 0 0 Z " fill="#EAEAE6" transform="translate(249,3)"/>
<path d="M0 0 C0.67369629 0.14663086 1.34739258 0.29326172 2.04150391 0.44433594 C19.06754343 4.2028244 38.32085416 11.34575085 48.87890625 25.9453125 C52.279774 32.17826176 52.26694304 37.94809684 52.1953125 44.8671875 C52.1924826 45.90191193 52.18965271 46.93663635 52.18673706 48.00271606 C52.17558048 51.29359714 52.15048397 54.58420178 52.125 57.875 C52.11496437 60.11197522 52.10583953 62.34895473 52.09765625 64.5859375 C52.07565595 70.0573853 52.04222338 75.52867289 52 81 C52.74588882 81.12719925 53.49177765 81.2543985 54.26026917 81.38545227 C55.24373825 81.55771835 56.22720734 81.72998444 57.24047852 81.9074707 C58.69962425 82.16014458 58.69962425 82.16014458 60.18824768 82.41792297 C64.02009697 83.21117614 67.4022615 84.5432879 70.9375 86.1875 C71.6178833 86.49719727 72.2982666 86.80689453 72.99926758 87.12597656 C98.90546815 99.13744807 118.05331847 119.17272926 128.27294922 145.93261719 C137.52553322 172.24251688 135.95549018 201.15045531 123.9921875 226.328125 C119.63944625 235.0935786 114.69937172 242.80560081 108 250 C107.12214844 250.94617188 106.24429687 251.89234375 105.33984375 252.8671875 C91.80457166 267.0904906 74.97073424 276.29777427 56 281 C55.26048096 281.18618896 54.52096191 281.37237793 53.7590332 281.56420898 C46.77235178 283.15250844 39.95854411 283.34769723 32.8125 283.3125 C31.6172168 283.30686035 30.42193359 283.3012207 29.19042969 283.29541016 C5.74851044 282.97363334 -14.65328146 274.53481587 -33 260 C-33.46367981 259.47515015 -33.92735962 258.95030029 -34.40509033 258.4095459 C-37.23111781 255.9119653 -41.07339658 256.58004417 -44.671875 256.59375 C-46.45817195 256.57401788 -48.24446748 256.5541561 -50.03076172 256.53417969 C-50.96531189 256.52914429 -51.89986206 256.52410889 -52.86273193 256.5189209 C-85.51321626 256.30495514 -130.18962196 254.70296502 -155.21315861 229.99601555 C-163.12864652 221.15391181 -162.711555 211.096375 -162.63110352 199.91748047 C-162.63624851 198.09648951 -162.64353416 196.27550353 -162.65278625 194.45452881 C-162.67123189 189.53306394 -162.65840603 184.61214385 -162.63869596 179.69070196 C-162.62225653 174.52948261 -162.63112947 169.36829632 -162.63621521 164.20706177 C-162.64072944 155.54371481 -162.62490588 146.88058425 -162.59692383 138.21728516 C-162.5648548 128.21170721 -162.56489774 118.206519 -162.5821386 108.20091331 C-162.59801824 98.55905466 -162.59126216 88.91733844 -162.57420158 79.27548599 C-162.56734218 75.17916176 -162.56835207 71.08295207 -162.57574654 66.98662949 C-162.58342443 62.16177923 -162.57123415 57.33737108 -162.54389763 52.51259613 C-162.53702926 50.7453734 -162.53689918 48.97810926 -162.54411316 47.21088791 C-162.58773086 35.1312876 -161.7372627 27.20325005 -153 18 C-137.70210837 5.89684879 -118.85251604 0.63401441 -100 -3 C-98.72455322 -3.2477417 -98.72455322 -3.2477417 -97.42333984 -3.50048828 C-65.57892373 -9.35588862 -31.41201005 -7.11546499 0 0 Z " fill="#1B1C1E" transform="translate(232,73)"/>
<path d="M0 0 C1.59720052 1.3377826 3.18139265 2.69130242 4.75 4.0625 C5.76320313 4.93261719 5.76320313 4.93261719 6.796875 5.8203125 C20.71778415 18.68323255 30.43068547 38.55182265 32.03588867 57.42358398 C32.15061869 60.93392428 32.16673141 64.42558574 32.125 67.9375 C32.11484863 69.17330811 32.10469727 70.40911621 32.09423828 71.68237305 C31.6888106 95.47532075 23.16059984 114.8831153 6.75 132.0625 C6.20988281 132.67738281 5.66976562 133.29226563 5.11328125 133.92578125 C-4.00630398 143.91827388 -16.64424047 149.81061138 -29.25 154.0625 C-30.22582031 154.4028125 -31.20164062 154.743125 -32.20703125 155.09375 C-53.78202507 161.33230243 -77.62177588 157.06222174 -97.25 147.0625 C-118.15983047 135.14022824 -132.97523072 116.49234619 -139.6875 93.375 C-146.56293664 67.13734718 -141.86822016 43.57253132 -128.78515625 20.4765625 C-116.76577441 1.17587398 -96.8197668 -12.41337871 -74.86816406 -17.85717773 C-48.41985106 -23.34460245 -21.16633146 -16.48065503 0 0 Z " fill="#FCC343" transform="translate(319.25,184.9375)"/>
<path d="M0 0 C1.15928644 1.1460752 2.27110955 2.33986104 3.37109375 3.54296875 C3.70109375 3.87296875 4.03109375 4.20296875 4.37109375 4.54296875 C5.09731704 8.7765204 5.21858786 12.77442444 3.3359375 16.703125 C-10.02293216 33.88857625 -39.62758978 38.03429444 -59.62890625 40.54296875 C-95.09885142 44.16474257 -144.72999599 44.05288691 -174.59765625 21.25390625 C-178.80803042 17.7074757 -181.84484028 14.94379332 -182.37890625 9.16796875 C-182.04262903 4.49918972 -180.37855486 1.79523121 -177.10546875 -1.484375 C-138.09943055 -32.55385337 -37.48619953 -33.53082116 0 0 Z " fill="#FCC23F" transform="translate(265.62890625,102.45703125)"/>
<path d="M0 0 C1.25876953 0.74443359 1.25876953 0.74443359 2.54296875 1.50390625 C45.0361156 25.83825872 104.40859802 28.15011469 150.875 15.625 C162.68547021 12.29189275 173.69497058 8.80520811 184 2 C184.66 2 185.32 2 186 2 C186 6.95 186 11.9 186 17 C184.13021484 17.03867188 184.13021484 17.03867188 182.22265625 17.078125 C152.61543523 17.9531432 128.63118462 27.71077957 107 48 C106.37714111 49.05247925 106.37714111 49.05247925 105.74169922 50.1262207 C104 52 104 52 101.06762695 52.48583984 C99.88644287 52.47762207 98.70525879 52.4694043 97.48828125 52.4609375 C96.18093018 52.45868164 94.8735791 52.45642578 93.52661133 52.45410156 C92.1218808 52.42920017 90.71717606 52.4028046 89.3125 52.375 C87.88241034 52.35862982 86.45231581 52.34267995 85.0222168 52.32714844 C75.55936656 52.19219424 66.32906758 51.71748525 57 50 C56.23751953 49.87109375 55.47503906 49.7421875 54.68945312 49.609375 C36.96640022 46.60216414 16.17896364 42.17896364 3 29 C-0.86354665 23.32857048 -0.34575206 17.71477796 -0.1875 11.125 C-0.17396484 10.05507812 -0.16042969 8.98515625 -0.14648438 7.8828125 C-0.11128624 5.25468489 -0.06204693 2.62760806 0 0 Z " fill="#F0B12D" transform="translate(84,135)"/>
<path d="M0 0 C1.9375 1.5 1.9375 1.5 3 4 C3.22896171 7.01813164 3.17421949 9.98019548 3 13 C3.72445312 13.18175781 4.44890625 13.36351562 5.1953125 13.55078125 C19.91935484 17.37903226 19.91935484 17.37903226 23 22 C23.5 24.875 23.5 24.875 23 28 C20.875 30.9375 20.875 30.9375 18 33 C13.65588644 32.62172045 9.74007321 31.32745814 5.625 29.9375 C-2.40264277 27.44993306 -7.71534894 26.86993242 -15.3359375 30.83203125 C-17.30390809 32.06329559 -17.30390809 32.06329559 -19 35 C-19.52357379 39.63736786 -19.7668109 41.83656277 -17.1875 45.75 C-11.73056887 49.60195139 -5.57485562 51.21553621 0.76953125 53.1484375 C11.23056018 56.38712187 19.4226023 60.10971582 25 70 C28.20616285 77.02302339 27.70027157 83.58247333 25.25 90.75 C21.85917957 99.15689616 17.05346659 103.02391744 9 107 C5.375 107.875 5.375 107.875 3 108 C3.05800781 108.66386719 3.11601562 109.32773437 3.17578125 110.01171875 C3.54313099 117.20127796 3.54313099 117.20127796 0.875 121.125 C-2.51181686 123.3337936 -4.03860834 123.75856436 -8 123 C-10.375 121.6875 -10.375 121.6875 -12 119 C-12.32924499 115.30926983 -12.22932778 111.69472534 -12 108 C-13.2375 107.938125 -14.475 107.87625 -15.75 107.8125 C-21.89432669 107.13848006 -27.57717841 104.92713927 -33 102 C-35.48836965 98.26744552 -35.54226552 96.41559065 -35 92 C-32.875 89.5 -32.875 89.5 -30 88 C-25.70314646 88.42668056 -21.87712442 89.65376682 -17.8125 91.0625 C-10.49416274 93.34895885 -3.32643701 94.56902753 4 91.6875 C6.61333512 90.21749899 8.14502495 89.27486912 10 87 C10.64840315 84.8695448 10.64840315 84.8695448 10.8125 82.5625 C10.90144531 81.80066406 10.99039063 81.03882813 11.08203125 80.25390625 C10.98468339 77.57915799 10.50022566 76.21329589 9 74 C3.54974805 70.00473873 -3.07959176 68.3277954 -9.5 66.5625 C-19.71709042 63.70059806 -27.23195365 60.41557744 -32.94140625 51.05078125 C-36.02221551 45.08242382 -35.6200429 38.54252163 -35 32 C-32.93829592 25.583755 -28.67893312 20.56558969 -23 17 C-19.72890059 15.46487879 -16.41783193 14.16907732 -13 13 C-12.97873047 11.98679688 -12.97873047 11.98679688 -12.95703125 10.953125 C-12.57036058 3.72133838 -12.57036058 3.72133838 -9.875 0.3125 C-6.06682223 -1.42601594 -3.98548426 -1.18088423 0 0 Z " fill="#1B1C1F" transform="translate(269,194)"/>
<path d="M0 0 C0.79019531 0.49628906 1.58039063 0.99257813 2.39453125 1.50390625 C18.27855994 11.07062981 34.78472142 15.99713328 53 19 C54.24523437 19.21398437 55.49046875 19.42796875 56.7734375 19.6484375 C65.8114297 21.0754889 74.87072676 21.58000922 84 22 C84.3403125 22.93199219 84.680625 23.86398437 85.03125 24.82421875 C88.10877508 33.00004045 91.70041811 40.25794697 96.4609375 47.5859375 C98 50 98 50 98 51 C67.66657835 51.8168503 28.17807712 51.44749346 4 30 C-1.13926977 24.43770802 -0.4685615 18.76187364 -0.25 11.625 C-0.23195313 10.50738281 -0.21390625 9.38976562 -0.1953125 8.23828125 C-0.14835555 5.4912997 -0.08269468 2.74609953 0 0 Z " fill="#F0B02C" transform="translate(84,264)"/>
<path d="M0 0 C0.62003906 0.36351562 1.24007812 0.72703125 1.87890625 1.1015625 C30.29037718 17.23034512 61.0163999 20.36964718 93 22 C92.18595703 23.64935547 92.18595703 23.64935547 91.35546875 25.33203125 C87.43056653 33.40201759 83.83452423 41.15224254 82 50 C56.84373218 51.23046962 28.18241245 46.43642123 7 32 C3.17448929 28.24172147 0.16318534 24.26054846 -0.11352539 18.73168945 C-0.10828857 17.86761475 -0.10305176 17.00354004 -0.09765625 16.11328125 C-0.09443359 15.17548828 -0.09121094 14.23769531 -0.08789062 13.27148438 C-0.07532227 11.80678711 -0.07532227 11.80678711 -0.0625 10.3125 C-0.05798828 9.32443359 -0.05347656 8.33636719 -0.04882812 7.31835938 C-0.03704303 4.87884526 -0.02059011 2.43945311 0 0 Z " fill="#F1B12C" transform="translate(84,179)"/>
<path d="M0 0 C1.27617188 0.74443359 1.27617188 0.74443359 2.578125 1.50390625 C26.56239422 15.11286317 51.85011612 18.88442463 79 21 C79.495 35.355 79.495 35.355 80 50 C68.72186495 50 68.72186495 50 64.7734375 49.484375 C63.89510254 49.36989014 63.01676758 49.25540527 62.11181641 49.13745117 C61.20866699 49.00959229 60.30551758 48.8817334 59.375 48.75 C58.4164209 48.61505127 57.4578418 48.48010254 56.47021484 48.34106445 C38.15140424 45.6408222 15.59853162 41.38717231 2.9375 26.6875 C0.31828121 23.05439006 -0.12302783 21.40684303 -0.09765625 16.9921875 C-0.09443359 16.00605469 -0.09121094 15.01992187 -0.08789062 14.00390625 C-0.07951172 12.97136719 -0.07113281 11.93882812 -0.0625 10.875 C-0.05798828 9.83472656 -0.05347656 8.79445312 -0.04882812 7.72265625 C-0.03701952 5.14838038 -0.02055075 2.57421854 0 0 Z " fill="#F0B02C" transform="translate(84,222)"/>
<path d="M0 0 C2.03094922 3.04642383 2.25035189 3.63556668 2.23046875 7.0546875 C2.22853516 7.83457031 2.22660156 8.61445313 2.22460938 9.41796875 C2.21236328 10.22878906 2.20011719 11.03960937 2.1875 11.875 C2.18685547 12.67808594 2.18621094 13.48117188 2.18554688 14.30859375 C2.15573748 18.32954949 1.99256835 22.07736989 1 26 C0.67 26 0.34 26 0 26 C-1.26686881 21.12356054 -1.14760473 16.31191298 -1.125 11.3125 C-1.12886719 10.44560547 -1.13273437 9.57871094 -1.13671875 8.68554688 C-1.13542969 7.85732422 -1.13414062 7.02910156 -1.1328125 6.17578125 C-1.13168457 5.42208252 -1.13055664 4.66838379 -1.12939453 3.8918457 C-1 2 -1 2 0 0 Z " fill="#222222" transform="translate(364,242)"/>
<path d="M0 0 C6.6 0 13.2 0 20 0 C20 0.33 20 0.66 20 1 C25.94 1.33 31.88 1.66 38 2 C38 2.33 38 2.66 38 3 C25.79 3 13.58 3 1 3 C0.67 2.01 0.34 1.02 0 0 Z " fill="#28292A" transform="translate(155,67)"/>
<path d="M0 0 C2 2 2 2 2.1953125 4.6015625 C2.17210937 5.59929687 2.14890625 6.59703125 2.125 7.625 C2.10695313 8.62789062 2.08890625 9.63078125 2.0703125 10.6640625 C2.03550781 11.82035156 2.03550781 11.82035156 2 13 C1.34 13 0.68 13 0 13 C0 9.7 0 6.4 0 3 C-2.64 2.67 -5.28 2.34 -8 2 C-9.93395001 4.90092502 -10.30131941 5.89674737 -10.625 9.1875 C-10.74875 10.445625 -10.8725 11.70375 -11 13 C-11.33 13 -11.66 13 -12 13 C-12.77235138 4.00639725 -12.77235138 4.00639725 -9.9375 0.3125 C-6.1485304 -1.38044386 -3.97140299 -1.04904985 0 0 Z " fill="#12111B" transform="translate(269,194)"/>
<path d="M0 0 C10.63496416 4.69750659 17.20902345 16.41731262 23 26 C23.33 26.99 23.66 27.98 24 29 C20.06870829 27.68956943 19.87931894 26.30988726 18 22.6875 C15.20564385 17.70184319 12.13790158 13.55925122 8.25 9.375 C7.54230469 8.61255981 7.54230469 8.61255981 6.8203125 7.8347168 C4.65167527 5.55648594 2.63026484 3.75350989 0 2 C0 1.34 0 0.68 0 0 Z " fill="#F0D548" transform="translate(319,186)"/>
<path d="M0 0 C0.66 0 1.32 0 2 0 C2 4.62 2 9.24 2 14 C-3.28 14 -8.56 14 -14 14 C-14 13.67 -14 13.34 -14 13 C-9.38 13 -4.76 13 0 13 C0 9.7 0 6.4 0 3 C-0.66 2.67 -1.32 2.34 -2 2 C-1.34 1.34 -0.68 0.68 0 0 Z " fill="#F9C22C" transform="translate(268,137)"/>
<path d="M0 0 C5.28 0 10.56 0 16 0 C15.67 6.93 15.34 13.86 15 21 C14.67 21 14.34 21 14 21 C14 14.73 14 8.46 14 2 C7.07 1.505 7.07 1.505 0 1 C0 0.67 0 0.34 0 0 Z " fill="#FACD2D" transform="translate(147,243)"/>
<path d="M0 0 C1.98 0 3.96 0 6 0 C6.03738281 0.75925781 6.07476562 1.51851563 6.11328125 2.30078125 C6.17902344 3.29464844 6.24476563 4.28851563 6.3125 5.3125 C6.39951172 6.79169922 6.39951172 6.79169922 6.48828125 8.30078125 C7.05478032 11.28895575 7.55702948 12.24843623 10 14 C13.10839021 14.7269226 13.10839021 14.7269226 16 15 C16 15.33 16 15.66 16 16 C9.64096386 16.48915663 9.64096386 16.48915663 6.625 14.1875 C3.67630083 10.21809727 3.90948489 6.79730071 4 2 C2.68 1.34 1.36 0.68 0 0 Z " fill="#F0D247" transform="translate(251,302)"/>
<path d="M0 0 C0.66 0 1.32 0 2 0 C2.08114106 1.77007714 2.13925505 3.54122098 2.1875 5.3125 C2.23970703 6.79169922 2.23970703 6.79169922 2.29296875 8.30078125 C2 11 2 11 0.48828125 12.85546875 C-0.00285156 13.23316406 -0.49398438 13.61085938 -1 14 C-1.02685938 11.85423363 -1.04633088 9.70837355 -1.0625 7.5625 C-1.07410156 6.36753906 -1.08570313 5.17257812 -1.09765625 3.94140625 C-1 1 -1 1 0 0 Z " fill="#2A2322" transform="translate(270,301)"/>
<path d="M0 0 C0.33 0 0.66 0 1 0 C1.33 2.31 1.66 4.62 2 7 C-1.3 7 -4.6 7 -8 7 C-8.33 6.34 -8.66 5.68 -9 5 C-6.03 5 -3.06 5 0 5 C0 3.35 0 1.7 0 0 Z " fill="#E2B52D" transform="translate(162,265)"/>
<path d="M0 0 C4.2742558 1.5830577 6.26531794 4.50568404 9 8 C6 8 6 8 4.39453125 6.7578125 C3.87246094 6.21898437 3.35039062 5.68015625 2.8125 5.125 C2.28269531 4.59132813 1.75289062 4.05765625 1.20703125 3.5078125 C0 2 0 2 0 0 Z " fill="#E0C043" transform="translate(198,311)"/>
<path d="M0 0 C0 0.66 0 1.32 0 2 C-2.875 2.625 -2.875 2.625 -6 3 C-6.66 2.34 -7.32 1.68 -8 1 C-5.07175348 0.02391783 -3.04386724 -0.08226668 0 0 Z " fill="#14131D" transform="translate(234,138)"/>
<path d="M0 0 C0 0.99 0 1.98 0 3 C-2.875 3.125 -2.875 3.125 -6 3 C-6.66 2.34 -7.32 1.68 -8 1 C-5.10765685 0.17361624 -3.11257569 0 0 0 Z " fill="#262727" transform="translate(130,71)"/>
</svg>
